<svg viewBox="0 0 100 100" xmlns="http://www.w3.org/2000/svg" id="Learning-1--Streamline-Ux">
  <desc>
    Learning 1 Streamline Illustration: https://streamlinehq.com
  </desc>
  <path d="M10 50.774a40 40 0 1 0 80 0 40 40 0 1 0 -80 0Z" fill="#d9edff" stroke-width="1"></path>
  <path d="M21.007 75.853a31.457 2.006 0 1 0 62.914 0 31.457 2.006 0 1 0 -62.914 0Z" fill="#b0d9ff" stroke-width="1"></path>
  <path d="M49.886 64.646h-27.2a5.548 5.548 0 1 1 0 -11.1h27.2Z" fill="#ffffff" stroke-width="1"></path>
  <path d="M49.886 64.646h-27.2a5.548 5.548 0 1 1 0 -11.1h27.2Z" fill="none" stroke="#020064" stroke-linecap="round" stroke-linejoin="round" stroke-width="1"></path>
  <path d="M30.507 64.647h-3.646a5.549 5.549 0 0 1 0 -11.1h3.646a5.549 5.549 0 0 0 0 11.1Z" fill="#b0d9ff" stroke="#020064" stroke-linecap="round" stroke-linejoin="round" stroke-width="1"></path>
  <path d="M43.279 55.832a3.082 3.082 0 1 0 0 6.164h27.2a1.233 1.233 0 0 1 0 2.466h-27.2a5.548 5.548 0 0 1 0 -11.1h27.2a1.233 1.233 0 0 1 0 2.466Z" fill="#ffffff" stroke-width="1"></path>
  <path d="M43.279 55.832a3.082 3.082 0 1 0 0 6.164h27.2a1.233 1.233 0 0 1 0 2.466h-27.2a5.548 5.548 0 0 1 0 -11.1h27.2a1.233 1.233 0 0 1 0 2.466Z" fill="none" stroke="#020064" stroke-linecap="round" stroke-linejoin="round" stroke-width="1"></path>
  <path d="M70.481 62v-6.168h-27.2a3.082 3.082 0 1 0 0 6.164Z" fill="#b0d9ff" stroke="#020064" stroke-linecap="round" stroke-linejoin="round" stroke-width="1"></path>
  <path d="M58.4 75.586H31.2a5.548 5.548 0 1 1 0 -11.1h27.2Z" fill="#b0d9ff" stroke-width="1"></path>
  <path d="M58.4 75.586H31.2a5.548 5.548 0 1 1 0 -11.1h27.2Z" fill="none" stroke="#020064" stroke-linecap="round" stroke-linejoin="round" stroke-width="1"></path>
  <path d="M39.016 75.586h-3.647a5.549 5.549 0 0 1 0 -11.1h3.647a5.549 5.549 0 0 0 0 11.1Z" fill="#ffffff" stroke="#020064" stroke-linecap="round" stroke-linejoin="round" stroke-width="1"></path>
  <path d="M50.572 66.928a3.082 3.082 0 0 0 0 6.164h27.2a1.233 1.233 0 0 1 0 2.466h-27.2a5.548 5.548 0 0 1 0 -11.1h27.2a1.233 1.233 0 0 1 0 2.466Z" fill="#b0d9ff" stroke-width="1"></path>
  <path d="M50.572 66.928a3.082 3.082 0 0 0 0 6.164h27.2a1.233 1.233 0 0 1 0 2.466h-27.2a5.548 5.548 0 0 1 0 -11.1h27.2a1.233 1.233 0 0 1 0 2.466Z" fill="none" stroke="#020064" stroke-linecap="round" stroke-linejoin="round" stroke-width="1"></path>
  <path d="M77.774 73.092v-6.164h-27.2a3.082 3.082 0 0 0 0 6.164Z" fill="#ffffff" stroke="#020064" stroke-linecap="round" stroke-linejoin="round" stroke-width="1"></path>
  <path d="M53.463 53.366h-27.2a5.548 5.548 0 0 1 0 -11.1h27.2Z" fill="#b0d9ff" stroke-width="1"></path>
  <path d="M53.463 53.366h-27.2a5.548 5.548 0 0 1 0 -11.1h27.2Z" fill="none" stroke="#020064" stroke-linecap="round" stroke-linejoin="round" stroke-width="1"></path>
  <path d="M45.979 44.736a3.082 3.082 0 0 0 0 6.164h27.2a1.233 1.233 0 0 1 0 2.466h-27.2a5.548 5.548 0 0 1 0 -11.1h27.2a1.233 1.233 0 1 1 0 2.466Z" fill="#b0d9ff" stroke-width="1"></path>
  <path d="M45.979 44.736a3.082 3.082 0 0 0 0 6.164h27.2a1.233 1.233 0 0 1 0 2.466h-27.2a5.548 5.548 0 0 1 0 -11.1h27.2a1.233 1.233 0 1 1 0 2.466Z" fill="none" stroke="#020064" stroke-linecap="round" stroke-linejoin="round" stroke-width="1"></path>
  <path d="M73.181 50.9v-6.164h-27.2a3.082 3.082 0 0 0 0 6.164Z" fill="#ffffff" stroke="#020064" stroke-linecap="round" stroke-linejoin="round" stroke-width="1"></path>
  <path d="M34.085 53.366h-3.647a5.549 5.549 0 0 1 0 -11.1h3.647a5.549 5.549 0 0 0 0 11.1Z" fill="#ffffff" stroke="#020064" stroke-linecap="round" stroke-linejoin="round" stroke-width="1"></path>
  <path d="M55.65 41.276a7.833 7.833 0 0 1 -7.136 0.068 7.831 7.831 0 0 1 -7.135 -0.068c-3.72 -1.949 -5.064 -5.032 -5.993 -11.534 -0.444 -3.113 1.824 -6.208 4.414 -7.991a8.279 8.279 0 0 1 8.714 -0.417 8.281 8.281 0 0 1 8.715 0.417c2.59 1.783 4.858 4.878 4.413 7.991 -0.918 6.427 -2.248 9.572 -5.992 11.534Z" fill="#ffffff" stroke-width="1"></path>
  <path d="m48.674 17.482 0.951 0.2a7.781 7.781 0 0 0 9.237 -5.977l0.2 -0.951a0.971 0.971 0 0 0 -0.744 -1.154l-0.951 -0.2a7.778 7.778 0 0 0 -9.236 5.976l-0.2 0.951a0.974 0.974 0 0 0 0.743 1.155Z" fill="#b0d9ff" stroke-width="1"></path>
  <path d="m48.674 17.482 0.951 0.2a7.781 7.781 0 0 0 9.237 -5.977l0.2 -0.951a0.971 0.971 0 0 0 -0.744 -1.154l-0.951 -0.2a7.778 7.778 0 0 0 -9.236 5.976l-0.2 0.951a0.974 0.974 0 0 0 0.743 1.155Z" fill="none" stroke="#020064" stroke-linecap="round" stroke-linejoin="round" stroke-width="1"></path>
  <path d="m46.573 9.861 1.941 11.646" fill="none" stroke="#020064" stroke-linecap="round" stroke-linejoin="round" stroke-width="1"></path>
  <path d="M55.65 41.276a7.833 7.833 0 0 1 -7.136 0.068 7.831 7.831 0 0 1 -7.135 -0.068c-3.72 -1.949 -5.064 -5.032 -5.993 -11.534 -0.444 -3.113 1.824 -6.208 4.414 -7.991a8.279 8.279 0 0 1 8.714 -0.417 8.281 8.281 0 0 1 8.715 0.417c2.59 1.783 4.858 4.878 4.413 7.991 -0.918 6.427 -2.248 9.572 -5.992 11.534Z" fill="none" stroke="#020064" stroke-linecap="round" stroke-linejoin="round" stroke-width="1"></path>
</svg>